<?xml version="1.0" encoding="utf-8" standalone="no"?>
<!DOCTYPE svg PUBLIC "-//W3C//DTD SVG 1.1//EN"
  "http://www.w3.org/Graphics/SVG/1.1/DTD/svg11.dtd">
<svg xmlns:xlink="http://www.w3.org/1999/xlink" width="506.31875pt" height="325.8275pt" viewBox="0 0 506.31875 325.8275" xmlns="http://www.w3.org/2000/svg" version="1.1">
 <metadata>
  <rdf:RDF xmlns:dc="http://purl.org/dc/elements/1.1/" xmlns:cc="http://creativecommons.org/ns#" xmlns:rdf="http://www.w3.org/1999/02/22-rdf-syntax-ns#">
   <cc:Work>
    <dc:type rdf:resource="http://purl.org/dc/dcmitype/StillImage"/>
    <dc:date>2024-10-10T09:14:58.449932</dc:date>
    <dc:format>image/svg+xml</dc:format>
    <dc:creator>
     <cc:Agent>
      <dc:title>Matplotlib v3.6.2, https://matplotlib.org/</dc:title>
     </cc:Agent>
    </dc:creator>
   </cc:Work>
  </rdf:RDF>
 </metadata>
 <defs>
  <style type="text/css">*{stroke-linejoin: round; stroke-linecap: butt}</style>
 </defs>
 <g id="figure_1">
  <g id="patch_1">
   <path d="M 0 325.8275 
L 506.31875 325.8275 
L 506.31875 0 
L 0 0 
z
" style="fill: #ffffff"/>
  </g>
  <g id="axes_1">
   <g id="patch_2">
    <path d="M 52.71875 284.4 
L 499.11875 284.4 
L 499.11875 7.2 
L 52.71875 7.2 
z
" style="fill: #ffffff"/>
   </g>
   <g id="matplotlib.axis_1">
    <g id="xtick_1">
     <g id="line2d_1">
      <defs>
       <path id="mbadb0cf787" d="M 0 0 
L 0 3.5 
" style="stroke: #000000; stroke-width: 0.8"/>
      </defs>
      <g>
       <use xlink:href="#mbadb0cf787" x="73.009659" y="284.4" style="stroke: #000000; stroke-width: 0.8"/>
      </g>
     </g>
     <g id="text_1">
      <!-- 0 -->
      <g transform="translate(69.192159 300.518125) scale(0.12 -0.12)">
       <defs>
        <path id="DejaVuSans-30" d="M 2034 4250 
Q 1547 4250 1301 3770 
Q 1056 3291 1056 2328 
Q 1056 1369 1301 889 
Q 1547 409 2034 409 
Q 2525 409 2770 889 
Q 3016 1369 3016 2328 
Q 3016 3291 2770 3770 
Q 2525 4250 2034 4250 
z
M 2034 4750 
Q 2819 4750 3233 4129 
Q 3647 3509 3647 2328 
Q 3647 1150 3233 529 
Q 2819 -91 2034 -91 
Q 1250 -91 836 529 
Q 422 1150 422 2328 
Q 422 3509 836 4129 
Q 1250 4750 2034 4750 
z
" transform="scale(0.015625)"/>
       </defs>
       <use xlink:href="#DejaVuSans-30"/>
      </g>
     </g>
    </g>
    <g id="xtick_2">
     <g id="line2d_2">
      <g>
       <use xlink:href="#mbadb0cf787" x="128.601191" y="284.4" style="stroke: #000000; stroke-width: 0.8"/>
      </g>
     </g>
     <g id="text_2">
      <!-- 200 -->
      <g transform="translate(117.148691 300.518125) scale(0.12 -0.12)">
       <defs>
        <path id="DejaVuSans-32" d="M 1228 531 
L 3431 531 
L 3431 0 
L 469 0 
L 469 531 
Q 828 903 1448 1529 
Q 2069 2156 2228 2338 
Q 2531 2678 2651 2914 
Q 2772 3150 2772 3378 
Q 2772 3750 2511 3984 
Q 2250 4219 1831 4219 
Q 1534 4219 1204 4116 
Q 875 4013 500 3803 
L 500 4441 
Q 881 4594 1212 4672 
Q 1544 4750 1819 4750 
Q 2544 4750 2975 4387 
Q 3406 4025 3406 3419 
Q 3406 3131 3298 2873 
Q 3191 2616 2906 2266 
Q 2828 2175 2409 1742 
Q 1991 1309 1228 531 
z
" transform="scale(0.015625)"/>
       </defs>
       <use xlink:href="#DejaVuSans-32"/>
       <use xlink:href="#DejaVuSans-30" x="63.623047"/>
       <use xlink:href="#DejaVuSans-30" x="127.246094"/>
      </g>
     </g>
    </g>
    <g id="xtick_3">
     <g id="line2d_3">
      <g>
       <use xlink:href="#mbadb0cf787" x="184.192723" y="284.4" style="stroke: #000000; stroke-width: 0.8"/>
      </g>
     </g>
     <g id="text_3">
      <!-- 400 -->
      <g transform="translate(172.740223 300.518125) scale(0.12 -0.12)">
       <defs>
        <path id="DejaVuSans-34" d="M 2419 4116 
L 825 1625 
L 2419 1625 
L 2419 4116 
z
M 2253 4666 
L 3047 4666 
L 3047 1625 
L 3713 1625 
L 3713 1100 
L 3047 1100 
L 3047 0 
L 2419 0 
L 2419 1100 
L 313 1100 
L 313 1709 
L 2253 4666 
z
" transform="scale(0.015625)"/>
       </defs>
       <use xlink:href="#DejaVuSans-34"/>
       <use xlink:href="#DejaVuSans-30" x="63.623047"/>
       <use xlink:href="#DejaVuSans-30" x="127.246094"/>
      </g>
     </g>
    </g>
    <g id="xtick_4">
     <g id="line2d_4">
      <g>
       <use xlink:href="#mbadb0cf787" x="239.784254" y="284.4" style="stroke: #000000; stroke-width: 0.8"/>
      </g>
     </g>
     <g id="text_4">
      <!-- 600 -->
      <g transform="translate(228.331754 300.518125) scale(0.12 -0.12)">
       <defs>
        <path id="DejaVuSans-36" d="M 2113 2584 
Q 1688 2584 1439 2293 
Q 1191 2003 1191 1497 
Q 1191 994 1439 701 
Q 1688 409 2113 409 
Q 2538 409 2786 701 
Q 3034 994 3034 1497 
Q 3034 2003 2786 2293 
Q 2538 2584 2113 2584 
z
M 3366 4563 
L 3366 3988 
Q 3128 4100 2886 4159 
Q 2644 4219 2406 4219 
Q 1781 4219 1451 3797 
Q 1122 3375 1075 2522 
Q 1259 2794 1537 2939 
Q 1816 3084 2150 3084 
Q 2853 3084 3261 2657 
Q 3669 2231 3669 1497 
Q 3669 778 3244 343 
Q 2819 -91 2113 -91 
Q 1303 -91 875 529 
Q 447 1150 447 2328 
Q 447 3434 972 4092 
Q 1497 4750 2381 4750 
Q 2619 4750 2861 4703 
Q 3103 4656 3366 4563 
z
" transform="scale(0.015625)"/>
       </defs>
       <use xlink:href="#DejaVuSans-36"/>
       <use xlink:href="#DejaVuSans-30" x="63.623047"/>
       <use xlink:href="#DejaVuSans-30" x="127.246094"/>
      </g>
     </g>
    </g>
    <g id="xtick_5">
     <g id="line2d_5">
      <g>
       <use xlink:href="#mbadb0cf787" x="295.375786" y="284.4" style="stroke: #000000; stroke-width: 0.8"/>
      </g>
     </g>
     <g id="text_5">
      <!-- 800 -->
      <g transform="translate(283.923286 300.518125) scale(0.12 -0.12)">
       <defs>
        <path id="DejaVuSans-38" d="M 2034 2216 
Q 1584 2216 1326 1975 
Q 1069 1734 1069 1313 
Q 1069 891 1326 650 
Q 1584 409 2034 409 
Q 2484 409 2743 651 
Q 3003 894 3003 1313 
Q 3003 1734 2745 1975 
Q 2488 2216 2034 2216 
z
M 1403 2484 
Q 997 2584 770 2862 
Q 544 3141 544 3541 
Q 544 4100 942 4425 
Q 1341 4750 2034 4750 
Q 2731 4750 3128 4425 
Q 3525 4100 3525 3541 
Q 3525 3141 3298 2862 
Q 3072 2584 2669 2484 
Q 3125 2378 3379 2068 
Q 3634 1759 3634 1313 
Q 3634 634 3220 271 
Q 2806 -91 2034 -91 
Q 1263 -91 848 271 
Q 434 634 434 1313 
Q 434 1759 690 2068 
Q 947 2378 1403 2484 
z
M 1172 3481 
Q 1172 3119 1398 2916 
Q 1625 2713 2034 2713 
Q 2441 2713 2670 2916 
Q 2900 3119 2900 3481 
Q 2900 3844 2670 4047 
Q 2441 4250 2034 4250 
Q 1625 4250 1398 4047 
Q 1172 3844 1172 3481 
z
" transform="scale(0.015625)"/>
       </defs>
       <use xlink:href="#DejaVuSans-38"/>
       <use xlink:href="#DejaVuSans-30" x="63.623047"/>
       <use xlink:href="#DejaVuSans-30" x="127.246094"/>
      </g>
     </g>
    </g>
    <g id="xtick_6">
     <g id="line2d_6">
      <g>
       <use xlink:href="#mbadb0cf787" x="350.967318" y="284.4" style="stroke: #000000; stroke-width: 0.8"/>
      </g>
     </g>
     <g id="text_6">
      <!-- 1000 -->
      <g transform="translate(335.697318 300.518125) scale(0.12 -0.12)">
       <defs>
        <path id="DejaVuSans-31" d="M 794 531 
L 1825 531 
L 1825 4091 
L 703 3866 
L 703 4441 
L 1819 4666 
L 2450 4666 
L 2450 531 
L 3481 531 
L 3481 0 
L 794 0 
L 794 531 
z
" transform="scale(0.015625)"/>
       </defs>
       <use xlink:href="#DejaVuSans-31"/>
       <use xlink:href="#DejaVuSans-30" x="63.623047"/>
       <use xlink:href="#DejaVuSans-30" x="127.246094"/>
       <use xlink:href="#DejaVuSans-30" x="190.869141"/>
      </g>
     </g>
    </g>
    <g id="xtick_7">
     <g id="line2d_7">
      <g>
       <use xlink:href="#mbadb0cf787" x="406.55885" y="284.4" style="stroke: #000000; stroke-width: 0.8"/>
      </g>
     </g>
     <g id="text_7">
      <!-- 1200 -->
      <g transform="translate(391.28885 300.518125) scale(0.12 -0.12)">
       <use xlink:href="#DejaVuSans-31"/>
       <use xlink:href="#DejaVuSans-32" x="63.623047"/>
       <use xlink:href="#DejaVuSans-30" x="127.246094"/>
       <use xlink:href="#DejaVuSans-30" x="190.869141"/>
      </g>
     </g>
    </g>
    <g id="xtick_8">
     <g id="line2d_8">
      <g>
       <use xlink:href="#mbadb0cf787" x="462.150381" y="284.4" style="stroke: #000000; stroke-width: 0.8"/>
      </g>
     </g>
     <g id="text_8">
      <!-- 1400 -->
      <g transform="translate(446.880381 300.518125) scale(0.12 -0.12)">
       <use xlink:href="#DejaVuSans-31"/>
       <use xlink:href="#DejaVuSans-34" x="63.623047"/>
       <use xlink:href="#DejaVuSans-30" x="127.246094"/>
       <use xlink:href="#DejaVuSans-30" x="190.869141"/>
      </g>
     </g>
    </g>
    <g id="text_9">
     <!-- Time (month) -->
     <g transform="translate(235.176875 316.131875) scale(0.12 -0.12)">
      <defs>
       <path id="DejaVuSans-54" d="M -19 4666 
L 3928 4666 
L 3928 4134 
L 2272 4134 
L 2272 0 
L 1638 0 
L 1638 4134 
L -19 4134 
L -19 4666 
z
" transform="scale(0.015625)"/>
       <path id="DejaVuSans-69" d="M 603 3500 
L 1178 3500 
L 1178 0 
L 603 0 
L 603 3500 
z
M 603 4863 
L 1178 4863 
L 1178 4134 
L 603 4134 
L 603 4863 
z
" transform="scale(0.015625)"/>
       <path id="DejaVuSans-6d" d="M 3328 2828 
Q 3544 3216 3844 3400 
Q 4144 3584 4550 3584 
Q 5097 3584 5394 3201 
Q 5691 2819 5691 2113 
L 5691 0 
L 5113 0 
L 5113 2094 
Q 5113 2597 4934 2840 
Q 4756 3084 4391 3084 
Q 3944 3084 3684 2787 
Q 3425 2491 3425 1978 
L 3425 0 
L 2847 0 
L 2847 2094 
Q 2847 2600 2669 2842 
Q 2491 3084 2119 3084 
Q 1678 3084 1418 2786 
Q 1159 2488 1159 1978 
L 1159 0 
L 581 0 
L 581 3500 
L 1159 3500 
L 1159 2956 
Q 1356 3278 1631 3431 
Q 1906 3584 2284 3584 
Q 2666 3584 2933 3390 
Q 3200 3197 3328 2828 
z
" transform="scale(0.015625)"/>
       <path id="DejaVuSans-65" d="M 3597 1894 
L 3597 1613 
L 953 1613 
Q 991 1019 1311 708 
Q 1631 397 2203 397 
Q 2534 397 2845 478 
Q 3156 559 3463 722 
L 3463 178 
Q 3153 47 2828 -22 
Q 2503 -91 2169 -91 
Q 1331 -91 842 396 
Q 353 884 353 1716 
Q 353 2575 817 3079 
Q 1281 3584 2069 3584 
Q 2775 3584 3186 3129 
Q 3597 2675 3597 1894 
z
M 3022 2063 
Q 3016 2534 2758 2815 
Q 2500 3097 2075 3097 
Q 1594 3097 1305 2825 
Q 1016 2553 972 2059 
L 3022 2063 
z
" transform="scale(0.015625)"/>
       <path id="DejaVuSans-20" transform="scale(0.015625)"/>
       <path id="DejaVuSans-28" d="M 1984 4856 
Q 1566 4138 1362 3434 
Q 1159 2731 1159 2009 
Q 1159 1288 1364 580 
Q 1569 -128 1984 -844 
L 1484 -844 
Q 1016 -109 783 600 
Q 550 1309 550 2009 
Q 550 2706 781 3412 
Q 1013 4119 1484 4856 
L 1984 4856 
z
" transform="scale(0.015625)"/>
       <path id="DejaVuSans-6f" d="M 1959 3097 
Q 1497 3097 1228 2736 
Q 959 2375 959 1747 
Q 959 1119 1226 758 
Q 1494 397 1959 397 
Q 2419 397 2687 759 
Q 2956 1122 2956 1747 
Q 2956 2369 2687 2733 
Q 2419 3097 1959 3097 
z
M 1959 3584 
Q 2709 3584 3137 3096 
Q 3566 2609 3566 1747 
Q 3566 888 3137 398 
Q 2709 -91 1959 -91 
Q 1206 -91 779 398 
Q 353 888 353 1747 
Q 353 2609 779 3096 
Q 1206 3584 1959 3584 
z
" transform="scale(0.015625)"/>
       <path id="DejaVuSans-6e" d="M 3513 2113 
L 3513 0 
L 2938 0 
L 2938 2094 
Q 2938 2591 2744 2837 
Q 2550 3084 2163 3084 
Q 1697 3084 1428 2787 
Q 1159 2491 1159 1978 
L 1159 0 
L 581 0 
L 581 3500 
L 1159 3500 
L 1159 2956 
Q 1366 3272 1645 3428 
Q 1925 3584 2291 3584 
Q 2894 3584 3203 3211 
Q 3513 2838 3513 2113 
z
" transform="scale(0.015625)"/>
       <path id="DejaVuSans-74" d="M 1172 4494 
L 1172 3500 
L 2356 3500 
L 2356 3053 
L 1172 3053 
L 1172 1153 
Q 1172 725 1289 603 
Q 1406 481 1766 481 
L 2356 481 
L 2356 0 
L 1766 0 
Q 1100 0 847 248 
Q 594 497 594 1153 
L 594 3053 
L 172 3053 
L 172 3500 
L 594 3500 
L 594 4494 
L 1172 4494 
z
" transform="scale(0.015625)"/>
       <path id="DejaVuSans-68" d="M 3513 2113 
L 3513 0 
L 2938 0 
L 2938 2094 
Q 2938 2591 2744 2837 
Q 2550 3084 2163 3084 
Q 1697 3084 1428 2787 
Q 1159 2491 1159 1978 
L 1159 0 
L 581 0 
L 581 4863 
L 1159 4863 
L 1159 2956 
Q 1366 3272 1645 3428 
Q 1925 3584 2291 3584 
Q 2894 3584 3203 3211 
Q 3513 2838 3513 2113 
z
" transform="scale(0.015625)"/>
       <path id="DejaVuSans-29" d="M 513 4856 
L 1013 4856 
Q 1481 4119 1714 3412 
Q 1947 2706 1947 2009 
Q 1947 1309 1714 600 
Q 1481 -109 1013 -844 
L 513 -844 
Q 928 -128 1133 580 
Q 1338 1288 1338 2009 
Q 1338 2731 1133 3434 
Q 928 4138 513 4856 
z
" transform="scale(0.015625)"/>
      </defs>
      <use xlink:href="#DejaVuSans-54"/>
      <use xlink:href="#DejaVuSans-69" x="57.958984"/>
      <use xlink:href="#DejaVuSans-6d" x="85.742188"/>
      <use xlink:href="#DejaVuSans-65" x="183.154297"/>
      <use xlink:href="#DejaVuSans-20" x="244.677734"/>
      <use xlink:href="#DejaVuSans-28" x="276.464844"/>
      <use xlink:href="#DejaVuSans-6d" x="315.478516"/>
      <use xlink:href="#DejaVuSans-6f" x="412.890625"/>
      <use xlink:href="#DejaVuSans-6e" x="474.072266"/>
      <use xlink:href="#DejaVuSans-74" x="537.451172"/>
      <use xlink:href="#DejaVuSans-68" x="576.660156"/>
      <use xlink:href="#DejaVuSans-29" x="640.039062"/>
     </g>
    </g>
   </g>
   <g id="matplotlib.axis_2">
    <g id="ytick_1">
     <g id="line2d_9">
      <defs>
       <path id="mbe876176c1" d="M 0 0 
L -3.5 0 
" style="stroke: #000000; stroke-width: 0.8"/>
      </defs>
      <g>
       <use xlink:href="#mbe876176c1" x="52.71875" y="271.8" style="stroke: #000000; stroke-width: 0.8"/>
      </g>
     </g>
     <g id="text_10">
      <!-- 0 -->
      <g transform="translate(38.08375 276.359063) scale(0.12 -0.12)">
       <use xlink:href="#DejaVuSans-30"/>
      </g>
     </g>
    </g>
    <g id="ytick_2">
     <g id="line2d_10">
      <g>
       <use xlink:href="#mbe876176c1" x="52.71875" y="239.720579" style="stroke: #000000; stroke-width: 0.8"/>
      </g>
     </g>
     <g id="text_11">
      <!-- 25 -->
      <g transform="translate(30.44875 244.279642) scale(0.12 -0.12)">
       <defs>
        <path id="DejaVuSans-35" d="M 691 4666 
L 3169 4666 
L 3169 4134 
L 1269 4134 
L 1269 2991 
Q 1406 3038 1543 3061 
Q 1681 3084 1819 3084 
Q 2600 3084 3056 2656 
Q 3513 2228 3513 1497 
Q 3513 744 3044 326 
Q 2575 -91 1722 -91 
Q 1428 -91 1123 -41 
Q 819 9 494 109 
L 494 744 
Q 775 591 1075 516 
Q 1375 441 1709 441 
Q 2250 441 2565 725 
Q 2881 1009 2881 1497 
Q 2881 1984 2565 2268 
Q 2250 2553 1709 2553 
Q 1456 2553 1204 2497 
Q 953 2441 691 2322 
L 691 4666 
z
" transform="scale(0.015625)"/>
       </defs>
       <use xlink:href="#DejaVuSans-32"/>
       <use xlink:href="#DejaVuSans-35" x="63.623047"/>
      </g>
     </g>
    </g>
    <g id="ytick_3">
     <g id="line2d_11">
      <g>
       <use xlink:href="#mbe876176c1" x="52.71875" y="207.641159" style="stroke: #000000; stroke-width: 0.8"/>
      </g>
     </g>
     <g id="text_12">
      <!-- 50 -->
      <g transform="translate(30.44875 212.200221) scale(0.12 -0.12)">
       <use xlink:href="#DejaVuSans-35"/>
       <use xlink:href="#DejaVuSans-30" x="63.623047"/>
      </g>
     </g>
    </g>
    <g id="ytick_4">
     <g id="line2d_12">
      <g>
       <use xlink:href="#mbe876176c1" x="52.71875" y="175.561738" style="stroke: #000000; stroke-width: 0.8"/>
      </g>
     </g>
     <g id="text_13">
      <!-- 75 -->
      <g transform="translate(30.44875 180.1208) scale(0.12 -0.12)">
       <defs>
        <path id="DejaVuSans-37" d="M 525 4666 
L 3525 4666 
L 3525 4397 
L 1831 0 
L 1172 0 
L 2766 4134 
L 525 4134 
L 525 4666 
z
" transform="scale(0.015625)"/>
       </defs>
       <use xlink:href="#DejaVuSans-37"/>
       <use xlink:href="#DejaVuSans-35" x="63.623047"/>
      </g>
     </g>
    </g>
    <g id="ytick_5">
     <g id="line2d_13">
      <g>
       <use xlink:href="#mbe876176c1" x="52.71875" y="143.482317" style="stroke: #000000; stroke-width: 0.8"/>
      </g>
     </g>
     <g id="text_14">
      <!-- 100 -->
      <g transform="translate(22.81375 148.04138) scale(0.12 -0.12)">
       <use xlink:href="#DejaVuSans-31"/>
       <use xlink:href="#DejaVuSans-30" x="63.623047"/>
       <use xlink:href="#DejaVuSans-30" x="127.246094"/>
      </g>
     </g>
    </g>
    <g id="ytick_6">
     <g id="line2d_14">
      <g>
       <use xlink:href="#mbe876176c1" x="52.71875" y="111.402897" style="stroke: #000000; stroke-width: 0.8"/>
      </g>
     </g>
     <g id="text_15">
      <!-- 125 -->
      <g transform="translate(22.81375 115.961959) scale(0.12 -0.12)">
       <use xlink:href="#DejaVuSans-31"/>
       <use xlink:href="#DejaVuSans-32" x="63.623047"/>
       <use xlink:href="#DejaVuSans-35" x="127.246094"/>
      </g>
     </g>
    </g>
    <g id="ytick_7">
     <g id="line2d_15">
      <g>
       <use xlink:href="#mbe876176c1" x="52.71875" y="79.323476" style="stroke: #000000; stroke-width: 0.8"/>
      </g>
     </g>
     <g id="text_16">
      <!-- 150 -->
      <g transform="translate(22.81375 83.882538) scale(0.12 -0.12)">
       <use xlink:href="#DejaVuSans-31"/>
       <use xlink:href="#DejaVuSans-35" x="63.623047"/>
       <use xlink:href="#DejaVuSans-30" x="127.246094"/>
      </g>
     </g>
    </g>
    <g id="ytick_8">
     <g id="line2d_16">
      <g>
       <use xlink:href="#mbe876176c1" x="52.71875" y="47.244055" style="stroke: #000000; stroke-width: 0.8"/>
      </g>
     </g>
     <g id="text_17">
      <!-- 175 -->
      <g transform="translate(22.81375 51.803118) scale(0.12 -0.12)">
       <use xlink:href="#DejaVuSans-31"/>
       <use xlink:href="#DejaVuSans-37" x="63.623047"/>
       <use xlink:href="#DejaVuSans-35" x="127.246094"/>
      </g>
     </g>
    </g>
    <g id="ytick_9">
     <g id="line2d_17">
      <g>
       <use xlink:href="#mbe876176c1" x="52.71875" y="15.164635" style="stroke: #000000; stroke-width: 0.8"/>
      </g>
     </g>
     <g id="text_18">
      <!-- 200 -->
      <g transform="translate(22.81375 19.723697) scale(0.12 -0.12)">
       <use xlink:href="#DejaVuSans-32"/>
       <use xlink:href="#DejaVuSans-30" x="63.623047"/>
       <use xlink:href="#DejaVuSans-30" x="127.246094"/>
      </g>
     </g>
    </g>
    <g id="text_19">
     <!-- Total Mass Flow (kg/s) -->
     <g transform="translate(16.318125 211.445625) rotate(-90) scale(0.12 -0.12)">
      <defs>
       <path id="DejaVuSans-61" d="M 2194 1759 
Q 1497 1759 1228 1600 
Q 959 1441 959 1056 
Q 959 750 1161 570 
Q 1363 391 1709 391 
Q 2188 391 2477 730 
Q 2766 1069 2766 1631 
L 2766 1759 
L 2194 1759 
z
M 3341 1997 
L 3341 0 
L 2766 0 
L 2766 531 
Q 2569 213 2275 61 
Q 1981 -91 1556 -91 
Q 1019 -91 701 211 
Q 384 513 384 1019 
Q 384 1609 779 1909 
Q 1175 2209 1959 2209 
L 2766 2209 
L 2766 2266 
Q 2766 2663 2505 2880 
Q 2244 3097 1772 3097 
Q 1472 3097 1187 3025 
Q 903 2953 641 2809 
L 641 3341 
Q 956 3463 1253 3523 
Q 1550 3584 1831 3584 
Q 2591 3584 2966 3190 
Q 3341 2797 3341 1997 
z
" transform="scale(0.015625)"/>
       <path id="DejaVuSans-6c" d="M 603 4863 
L 1178 4863 
L 1178 0 
L 603 0 
L 603 4863 
z
" transform="scale(0.015625)"/>
       <path id="DejaVuSans-4d" d="M 628 4666 
L 1569 4666 
L 2759 1491 
L 3956 4666 
L 4897 4666 
L 4897 0 
L 4281 0 
L 4281 4097 
L 3078 897 
L 2444 897 
L 1241 4097 
L 1241 0 
L 628 0 
L 628 4666 
z
" transform="scale(0.015625)"/>
       <path id="DejaVuSans-73" d="M 2834 3397 
L 2834 2853 
Q 2591 2978 2328 3040 
Q 2066 3103 1784 3103 
Q 1356 3103 1142 2972 
Q 928 2841 928 2578 
Q 928 2378 1081 2264 
Q 1234 2150 1697 2047 
L 1894 2003 
Q 2506 1872 2764 1633 
Q 3022 1394 3022 966 
Q 3022 478 2636 193 
Q 2250 -91 1575 -91 
Q 1294 -91 989 -36 
Q 684 19 347 128 
L 347 722 
Q 666 556 975 473 
Q 1284 391 1588 391 
Q 1994 391 2212 530 
Q 2431 669 2431 922 
Q 2431 1156 2273 1281 
Q 2116 1406 1581 1522 
L 1381 1569 
Q 847 1681 609 1914 
Q 372 2147 372 2553 
Q 372 3047 722 3315 
Q 1072 3584 1716 3584 
Q 2034 3584 2315 3537 
Q 2597 3491 2834 3397 
z
" transform="scale(0.015625)"/>
       <path id="DejaVuSans-46" d="M 628 4666 
L 3309 4666 
L 3309 4134 
L 1259 4134 
L 1259 2759 
L 3109 2759 
L 3109 2228 
L 1259 2228 
L 1259 0 
L 628 0 
L 628 4666 
z
" transform="scale(0.015625)"/>
       <path id="DejaVuSans-77" d="M 269 3500 
L 844 3500 
L 1563 769 
L 2278 3500 
L 2956 3500 
L 3675 769 
L 4391 3500 
L 4966 3500 
L 4050 0 
L 3372 0 
L 2619 2869 
L 1863 0 
L 1184 0 
L 269 3500 
z
" transform="scale(0.015625)"/>
       <path id="DejaVuSans-6b" d="M 581 4863 
L 1159 4863 
L 1159 1991 
L 2875 3500 
L 3609 3500 
L 1753 1863 
L 3688 0 
L 2938 0 
L 1159 1709 
L 1159 0 
L 581 0 
L 581 4863 
z
" transform="scale(0.015625)"/>
       <path id="DejaVuSans-67" d="M 2906 1791 
Q 2906 2416 2648 2759 
Q 2391 3103 1925 3103 
Q 1463 3103 1205 2759 
Q 947 2416 947 1791 
Q 947 1169 1205 825 
Q 1463 481 1925 481 
Q 2391 481 2648 825 
Q 2906 1169 2906 1791 
z
M 3481 434 
Q 3481 -459 3084 -895 
Q 2688 -1331 1869 -1331 
Q 1566 -1331 1297 -1286 
Q 1028 -1241 775 -1147 
L 775 -588 
Q 1028 -725 1275 -790 
Q 1522 -856 1778 -856 
Q 2344 -856 2625 -561 
Q 2906 -266 2906 331 
L 2906 616 
Q 2728 306 2450 153 
Q 2172 0 1784 0 
Q 1141 0 747 490 
Q 353 981 353 1791 
Q 353 2603 747 3093 
Q 1141 3584 1784 3584 
Q 2172 3584 2450 3431 
Q 2728 3278 2906 2969 
L 2906 3500 
L 3481 3500 
L 3481 434 
z
" transform="scale(0.015625)"/>
       <path id="DejaVuSans-2f" d="M 1625 4666 
L 2156 4666 
L 531 -594 
L 0 -594 
L 1625 4666 
z
" transform="scale(0.015625)"/>
      </defs>
      <use xlink:href="#DejaVuSans-54"/>
      <use xlink:href="#DejaVuSans-6f" x="44.083984"/>
      <use xlink:href="#DejaVuSans-74" x="105.265625"/>
      <use xlink:href="#DejaVuSans-61" x="144.474609"/>
      <use xlink:href="#DejaVuSans-6c" x="205.753906"/>
      <use xlink:href="#DejaVuSans-20" x="233.537109"/>
      <use xlink:href="#DejaVuSans-4d" x="265.324219"/>
      <use xlink:href="#DejaVuSans-61" x="351.603516"/>
      <use xlink:href="#DejaVuSans-73" x="412.882812"/>
      <use xlink:href="#DejaVuSans-73" x="464.982422"/>
      <use xlink:href="#DejaVuSans-20" x="517.082031"/>
      <use xlink:href="#DejaVuSans-46" x="548.869141"/>
      <use xlink:href="#DejaVuSans-6c" x="606.388672"/>
      <use xlink:href="#DejaVuSans-6f" x="634.171875"/>
      <use xlink:href="#DejaVuSans-77" x="695.353516"/>
      <use xlink:href="#DejaVuSans-20" x="777.140625"/>
      <use xlink:href="#DejaVuSans-28" x="808.927734"/>
      <use xlink:href="#DejaVuSans-6b" x="847.941406"/>
      <use xlink:href="#DejaVuSans-67" x="905.851562"/>
      <use xlink:href="#DejaVuSans-2f" x="969.328125"/>
      <use xlink:href="#DejaVuSans-73" x="1003.019531"/>
      <use xlink:href="#DejaVuSans-29" x="1055.119141"/>
     </g>
    </g>
   </g>
   <g id="line2d_18">
    <path d="M 73.009659 105.577312 
L 73.287617 104.729762 
L 73.843532 104.837789 
L 74.12149 105.124936 
L 74.399447 104.955909 
L 74.677405 105.385462 
L 75.23332 105.484994 
L 75.511278 105.807065 
L 75.789236 104.855773 
L 76.067193 106.02377 
L 76.623109 105.596838 
L 76.901066 105.760733 
L 77.456982 106.835038 
L 77.734939 106.450969 
L 78.012897 105.800177 
L 78.568812 106.73767 
L 78.84677 106.132916 
L 79.402685 106.481922 
L 79.680643 102.376502 
L 79.958601 106.125107 
L 80.514516 107.077335 
L 80.792474 106.850203 
L 81.070431 107.544868 
L 81.348389 107.239964 
L 81.626347 106.574356 
L 81.904304 106.835806 
L 82.182262 107.714471 
L 82.738177 108.557509 
L 83.016135 109.379905 
L 83.294092 109.596915 
L 83.57205 108.480128 
L 83.850008 102.844537 
L 84.127965 102.248329 
L 84.405923 101.987746 
L 84.683881 102.688038 
L 84.961838 102.773277 
L 85.239796 102.50769 
L 85.517754 103.548957 
L 85.795711 102.918276 
L 86.351627 103.25083 
L 86.629584 103.798753 
L 86.907542 109.388426 
L 87.463457 111.456684 
L 87.741415 111.082496 
L 88.019373 111.210714 
L 88.29733 111.824395 
L 88.575288 111.193288 
L 88.853246 110.858181 
L 89.131203 112.056075 
L 89.409161 111.201956 
L 89.687119 111.748863 
L 89.965076 111.830551 
L 90.243034 111.762189 
L 90.798949 112.32848 
L 91.076907 112.182132 
L 91.354865 112.20534 
L 91.632822 231.381779 
L 91.91078 230.804801 
L 92.188738 230.766976 
L 92.466695 112.457814 
L 92.744653 113.472834 
L 93.022611 113.486663 
L 93.300568 113.651656 
L 93.578526 112.904791 
L 93.856483 160.052578 
L 94.134441 160.266859 
L 94.412399 159.514952 
L 94.690356 161.252838 
L 94.968314 161.780931 
L 95.246272 161.459728 
L 95.524229 109.26101 
L 95.802187 110.270194 
L 96.080145 113.085792 
L 96.358102 113.974451 
L 96.63606 113.573905 
L 97.191975 114.77569 
L 97.469933 113.811085 
L 97.747891 113.66831 
L 98.025848 113.775973 
L 98.581764 114.77549 
L 98.859721 114.359587 
L 99.415637 114.94785 
L 99.693594 114.806741 
L 99.971552 114.285906 
L 100.24951 115.018836 
L 100.527467 115.08992 
L 100.805425 115.318048 
L 101.083383 114.973658 
L 101.36134 115.027623 
L 101.639298 115.26958 
L 101.917256 114.911313 
L 102.195213 115.496882 
L 102.473171 115.162342 
L 102.751129 116.027129 
L 103.029086 115.773095 
L 103.307044 116.607686 
L 103.585002 115.83179 
L 103.862959 115.483749 
L 104.418875 117.072403 
L 104.696832 116.193849 
L 104.97479 116.829646 
L 105.252748 116.939838 
L 105.530705 116.856248 
L 105.808663 116.277709 
L 106.08662 116.399923 
L 106.364578 117.776023 
L 106.642536 117.396378 
L 106.920493 118.4485 
L 107.198451 118.317411 
L 107.476409 117.811985 
L 107.754366 118.120203 
L 108.310282 117.59684 
L 108.866197 118.836116 
L 109.144155 117.77054 
L 109.422112 118.776663 
L 109.70007 117.214013 
L 109.978028 117.770399 
L 110.533943 117.528104 
L 110.811901 117.348825 
L 111.089858 117.572074 
L 111.367816 118.090593 
L 111.645774 117.887148 
L 112.201689 117.784864 
L 112.479647 117.332102 
L 112.757604 117.422607 
L 113.035562 116.530364 
L 113.31352 116.95534 
L 113.591477 112.806534 
L 114.147393 118.290615 
L 114.703308 117.678417 
L 114.981266 117.469004 
L 115.259223 116.81064 
L 115.537181 117.19676 
L 115.815139 116.993778 
L 116.093096 117.135128 
L 116.371054 117.09567 
L 116.649012 116.692991 
L 116.926969 116.715941 
L 117.204927 113.641057 
L 117.482884 118.248925 
L 117.760842 118.920064 
L 118.0388 117.847135 
L 118.594715 117.041699 
L 118.872673 117.259243 
L 119.15063 114.484552 
L 119.428588 176.959999 
L 120.262461 176.941494 
L 120.540419 176.804337 
L 120.818376 176.946348 
L 121.096334 177.810543 
L 121.374292 177.534791 
L 121.652249 177.619983 
L 121.930207 177.888806 
L 122.208165 177.873403 
L 122.76408 178.11716 
L 123.042038 177.859218 
L 123.319995 177.819041 
L 123.597953 177.454681 
L 124.709784 178.355434 
L 125.265699 177.816562 
L 125.543657 177.977206 
L 125.821614 177.908705 
L 126.099572 177.474587 
L 126.655487 177.79615 
L 126.933445 177.637523 
L 127.211403 177.664872 
L 127.48936 177.997811 
L 127.767318 177.910016 
L 128.045276 178.016392 
L 128.323233 177.859903 
L 128.601191 178.112997 
L 128.879149 171.744792 
L 129.157106 178.275158 
L 129.435064 178.036413 
L 129.713021 177.59963 
L 130.546894 178.099174 
L 131.658725 178.11617 
L 131.936683 177.857133 
L 132.492598 178.011343 
L 132.770556 176.177443 
L 133.048513 175.396941 
L 133.326471 175.491874 
L 134.160344 175.354697 
L 134.438302 175.449008 
L 134.716259 177.861235 
L 134.994217 177.444175 
L 135.272175 180.684645 
L 135.550132 178.487946 
L 135.82809 177.778577 
L 136.106048 235.638982 
L 136.384005 190.148334 
L 136.939921 178.271527 
L 137.217878 177.534579 
L 137.773794 177.534366 
L 138.051751 177.608476 
L 138.329709 178.038857 
L 138.607667 177.636751 
L 138.885624 177.763258 
L 139.163582 179.624334 
L 139.44154 177.702745 
L 139.719497 177.895016 
L 139.997455 177.714309 
L 140.275413 177.791184 
L 140.55337 177.464371 
L 140.831328 177.370142 
L 141.109285 177.05051 
L 141.387243 177.249087 
L 141.943158 177.194279 
L 142.777031 177.091387 
L 143.054989 177.134416 
L 143.332947 177.037637 
L 143.610904 177.157274 
L 144.16682 176.709717 
L 144.722735 177.012537 
L 145.000693 176.790144 
L 145.556608 176.885957 
L 145.834566 176.519414 
L 146.112523 176.936391 
L 146.390481 176.754236 
L 146.668439 176.779471 
L 146.946396 175.421813 
L 147.224354 176.832856 
L 147.780269 176.345907 
L 148.058227 176.49515 
L 148.336185 174.545023 
L 148.614142 176.665294 
L 149.170058 175.776179 
L 149.448015 175.389535 
L 149.725973 175.387966 
L 150.281888 175.953301 
L 150.559846 175.453064 
L 150.837804 175.997859 
L 151.115761 175.524262 
L 151.393719 175.859676 
L 151.671677 173.302581 
L 151.949634 173.370701 
L 152.227592 173.681089 
L 152.50555 174.159729 
L 152.783507 173.734795 
L 153.061465 173.707273 
L 153.339422 173.544835 
L 153.61738 173.630236 
L 153.895338 174.153149 
L 154.173295 173.90766 
L 154.451253 173.921 
L 154.729211 163.242281 
L 155.007168 163.25947 
L 155.285126 163.027768 
L 156.118999 163.704597 
L 156.396957 163.4326 
L 156.674914 162.911431 
L 156.952872 163.209197 
L 157.23083 162.650571 
L 157.786745 162.977216 
L 158.064703 162.832947 
L 158.34266 163.753403 
L 158.620618 163.430137 
L 158.898576 163.919321 
L 159.176533 164.121499 
L 159.454491 163.40582 
L 159.732449 164.077317 
L 160.010406 164.106669 
L 160.288364 163.311333 
L 160.566322 129.343603 
L 161.678152 130.883842 
L 161.95611 120.724152 
L 162.234068 67.398398 
L 162.512025 76.990361 
L 162.789983 77.316804 
L 163.067941 76.700973 
L 163.345898 76.552949 
L 163.623856 77.751941 
L 163.901814 78.088164 
L 164.179771 78.056518 
L 164.457729 78.903821 
L 164.735686 79.027942 
L 165.013644 77.835841 
L 165.291602 77.905972 
L 165.569559 76.749724 
L 165.847517 78.255575 
L 166.125475 77.449628 
L 166.403432 78.149902 
L 166.68139 77.637711 
L 166.959348 77.88087 
L 167.237305 74.424993 
L 167.515263 74.609534 
L 167.793221 75.799735 
L 168.349136 75.635573 
L 168.627094 74.863984 
L 168.905051 75.187501 
L 169.183009 75.244657 
L 169.460967 76.304527 
L 169.738924 76.415921 
L 170.016882 75.881859 
L 170.29484 75.971966 
L 170.572797 76.763721 
L 170.850755 76.681967 
L 171.40667 83.801691 
L 171.684628 83.027007 
L 171.962586 83.308267 
L 172.240543 82.409241 
L 172.518501 82.574079 
L 172.796459 85.380734 
L 173.074416 81.142874 
L 173.352374 85.751198 
L 173.630332 82.456899 
L 173.908289 81.218875 
L 174.186247 82.710344 
L 174.464205 81.146654 
L 174.742162 85.245366 
L 175.02012 82.504657 
L 175.298078 83.447483 
L 175.576035 83.636437 
L 175.853993 84.624413 
L 176.13195 84.994757 
L 176.409908 85.966945 
L 176.687866 83.848179 
L 177.243781 83.549038 
L 177.521739 83.374131 
L 177.799696 82.041673 
L 178.077654 81.900135 
L 178.355612 82.802152 
L 178.633569 85.233774 
L 178.911527 83.445334 
L 179.189485 86.417473 
L 179.467442 49.522582 
L 179.7454 45.714443 
L 180.023358 45.867291 
L 180.301315 46.374949 
L 180.579273 47.378686 
L 180.857231 49.211419 
L 181.135188 39.779974 
L 181.413146 46.590677 
L 181.969061 47.750354 
L 182.247019 46.984717 
L 182.524977 47.781517 
L 182.802934 44.777941 
L 183.080892 47.071036 
L 183.35885 47.815917 
L 183.914765 48.168613 
L 184.192723 47.097491 
L 184.748638 47.809076 
L 185.026596 49.828812 
L 185.304553 40.428058 
L 185.582511 48.011034 
L 185.860469 47.273412 
L 186.138426 48.833892 
L 186.416384 48.395007 
L 186.694342 49.459926 
L 186.972299 48.410948 
L 187.250257 50.962603 
L 187.528215 50.669753 
L 187.806172 49.708345 
L 188.08413 50.206858 
L 188.362087 49.492861 
L 188.640045 49.59604 
L 188.918003 51.182482 
L 189.473918 49.115504 
L 189.751876 51.159318 
L 190.307791 49.868289 
L 190.585749 51.598192 
L 190.863706 50.89852 
L 191.141664 52.220289 
L 191.419622 46.199788 
L 191.697579 52.391156 
L 191.975537 51.980131 
L 192.253495 50.511655 
L 192.531452 50.364879 
L 192.80941 51.738025 
L 193.087368 51.125722 
L 193.365325 52.475702 
L 193.643283 51.935826 
L 194.199198 45.539904 
L 194.477156 56.869813 
L 194.755114 52.932845 
L 195.033071 54.503327 
L 195.311029 55.195013 
L 195.588987 53.337906 
L 195.866944 55.835686 
L 196.144902 55.212042 
L 196.42286 53.314225 
L 196.700817 52.271757 
L 197.256733 54.132339 
L 197.53469 53.412983 
L 197.812648 55.246353 
L 198.090606 55.661168 
L 198.368563 53.978365 
L 198.646521 55.558056 
L 199.202436 55.568657 
L 199.480394 54.122825 
L 199.758351 33.551809 
L 200.036309 52.866674 
L 200.314267 45.147555 
L 200.592224 45.353535 
L 200.870182 46.487097 
L 201.14814 44.819058 
L 201.426097 52.874457 
L 201.704055 44.09113 
L 201.982013 44.244572 
L 202.537928 45.710446 
L 202.815886 44.650049 
L 203.093843 44.772707 
L 203.371801 46.050885 
L 203.649759 46.158647 
L 204.205674 45.818486 
L 204.483632 46.537787 
L 204.761589 50.093795 
L 205.039547 57.602762 
L 205.317505 57.005079 
L 205.595462 57.756235 
L 205.87342 57.859623 
L 206.151378 57.552875 
L 206.429335 56.170634 
L 206.985251 56.897756 
L 207.263208 145.583217 
L 207.819124 146.324006 
L 208.097081 146.674413 
L 208.375039 92.82972 
L 208.652997 93.03881 
L 209.208912 93.83937 
L 209.48687 92.530806 
L 210.042785 93.231363 
L 210.320743 93.439285 
L 210.5987 93.045481 
L 210.876658 93.40403 
L 211.154616 92.706863 
L 211.432573 93.202351 
L 211.710531 93.178464 
L 211.988488 92.885901 
L 212.266446 100.723369 
L 213.100319 101.665824 
L 213.378277 101.905024 
L 213.656234 101.835944 
L 213.934192 102.162437 
L 214.21215 102.258402 
L 214.768065 101.97173 
L 215.046023 102.153109 
L 215.879896 102.107329 
L 216.435811 102.607033 
L 216.713769 102.808781 
L 217.269684 102.566032 
L 217.547642 102.344294 
L 217.825599 102.669887 
L 218.381515 96.81799 
L 218.659472 97.028369 
L 218.93743 102.663978 
L 219.215388 102.941279 
L 219.493345 102.610718 
L 220.605176 103.626524 
L 220.883134 103.849387 
L 221.161091 104.449233 
L 221.439049 104.783017 
L 221.994964 104.319138 
L 222.272922 104.793151 
L 222.55088 104.53657 
L 222.828837 105.248393 
L 223.106795 104.683772 
L 223.384752 104.497776 
L 223.66271 104.783014 
L 223.940668 105.292099 
L 224.218625 104.821415 
L 224.496583 105.122779 
L 224.774541 105.182031 
L 225.052498 104.993275 
L 225.330456 104.985636 
L 225.608414 105.804427 
L 225.886371 105.397085 
L 226.164329 105.44684 
L 226.720244 105.808317 
L 226.998202 105.795605 
L 227.27616 106.04795 
L 227.554117 106.038267 
L 227.832075 106.24 
L 228.110033 106.171808 
L 228.38799 106.45004 
L 228.665948 106.556713 
L 228.943906 106.398825 
L 229.499821 106.565472 
L 229.777779 106.348689 
L 230.055736 106.546867 
L 230.333694 106.412439 
L 230.611652 107.003633 
L 230.889609 106.798322 
L 231.167567 106.92312 
L 231.445525 106.831893 
L 231.723482 107.261826 
L 232.00144 107.352886 
L 232.279398 107.155728 
L 232.557355 107.212777 
L 232.835313 108.106877 
L 233.669186 108.178597 
L 234.225101 108.104772 
L 234.503059 107.824016 
L 234.781017 107.940286 
L 235.058974 108.177523 
L 235.336932 108.138004 
L 235.614889 108.327236 
L 235.892847 108.186803 
L 236.170805 109.668116 
L 236.448762 68.269811 
L 236.72672 68.597937 
L 237.004678 68.211207 
L 237.282635 68.810609 
L 237.560593 68.979371 
L 237.838551 68.924424 
L 238.116508 69.221615 
L 238.672424 69.332388 
L 238.950381 69.096082 
L 239.228339 68.662735 
L 239.506297 69.00883 
L 239.784254 69.675159 
L 240.062212 69.135306 
L 240.34017 69.563135 
L 240.618127 69.14414 
L 240.896085 69.493084 
L 241.174043 69.510348 
L 241.452 69.682258 
L 241.729958 69.667087 
L 242.007916 69.816969 
L 242.285873 69.821457 
L 242.563831 69.505027 
L 242.841789 69.540786 
L 243.119746 69.120783 
L 243.397704 69.360913 
L 243.675662 68.494784 
L 243.953619 65.879058 
L 244.231577 65.751013 
L 244.509535 71.233574 
L 244.787492 70.810609 
L 245.06545 72.580012 
L 245.343408 69.860298 
L 245.621365 70.072696 
L 245.899323 69.307772 
L 246.177281 68.897514 
L 246.455238 68.906166 
L 246.733196 68.692336 
L 247.289111 67.549879 
L 247.567069 67.555244 
L 247.845026 67.181558 
L 248.400942 64.842814 
L 248.678899 68.687332 
L 248.956857 68.664963 
L 249.234815 68.446766 
L 249.512772 67.807737 
L 250.902561 62.617407 
L 251.180518 62.317489 
L 251.458476 69.408753 
L 251.736434 69.458071 
L 252.014391 69.390633 
L 252.848264 66.352303 
L 253.126222 66.966066 
L 253.40418 65.97779 
L 253.682137 65.686629 
L 253.960095 65.179885 
L 254.238053 64.014987 
L 254.51601 63.53946 
L 254.793968 64.152714 
L 255.071926 63.454657 
L 255.349883 163.10782 
L 255.627841 163.006552 
L 255.905799 163.248278 
L 256.183756 163.687924 
L 256.461714 163.756474 
L 256.739672 163.639741 
L 257.295587 163.771902 
L 257.573545 167.049029 
L 257.851502 167.622301 
L 258.12946 166.379768 
L 258.685375 166.025885 
L 258.963333 165.622135 
L 259.24129 160.913651 
L 259.797206 161.321985 
L 260.075163 161.262379 
L 260.353121 160.994561 
L 260.631079 161.220837 
L 260.909036 161.292953 
L 261.464952 161.075472 
L 261.742909 161.322169 
L 262.020867 161.83182 
L 262.298825 161.615733 
L 262.85474 161.718035 
L 263.132698 161.562241 
L 263.688613 161.928718 
L 264.522486 161.596859 
L 264.800444 155.598176 
L 265.078401 155.293209 
L 265.634317 155.666835 
L 265.912274 154.131342 
L 266.190232 154.940733 
L 266.46819 155.019325 
L 266.746147 154.067526 
L 267.302063 153.983955 
L 267.58002 163.28376 
L 267.857978 163.437803 
L 268.135936 163.036946 
L 268.413893 163.015209 
L 268.691851 163.116646 
L 268.969809 162.588164 
L 270.359597 162.068598 
L 270.637554 162.193579 
L 270.915512 162.066468 
L 271.19347 162.21732 
L 271.471427 164.348525 
L 272.583258 164.307274 
L 272.861216 169.702217 
L 273.139173 79.101769 
L 273.417131 77.660878 
L 273.695089 77.655323 
L 273.973046 78.648102 
L 274.251004 78.995009 
L 274.528962 79.97025 
L 274.806919 78.496072 
L 275.084877 78.05446 
L 275.362835 78.357671 
L 275.640792 79.526285 
L 275.91875 80.002107 
L 276.196708 78.808933 
L 277.030581 79.943078 
L 277.308538 79.922065 
L 277.586496 78.816534 
L 277.864454 79.005866 
L 278.142411 78.217357 
L 278.420369 80.087658 
L 278.698327 79.928177 
L 278.976284 79.22934 
L 279.254242 80.197533 
L 279.5322 79.44015 
L 280.088115 79.488608 
L 280.366073 79.593014 
L 280.64403 93.896934 
L 280.921988 79.562383 
L 281.199946 79.852782 
L 281.477903 78.572232 
L 281.755861 80.174161 
L 282.033818 80.617394 
L 282.311776 80.683601 
L 282.589734 81.494957 
L 282.867691 79.516491 
L 283.145649 80.906068 
L 283.423607 80.204498 
L 283.701564 80.696866 
L 284.25748 81.078944 
L 284.535437 81.270901 
L 284.813395 81.624448 
L 285.091353 80.17701 
L 285.36931 80.738852 
L 285.647268 80.027083 
L 285.925226 81.322239 
L 286.203183 81.716685 
L 286.481141 81.770812 
L 286.759099 81.005396 
L 287.037056 81.337872 
L 287.315014 80.777273 
L 287.592972 81.318494 
L 287.870929 81.285131 
L 288.148887 81.928443 
L 288.426845 81.631525 
L 288.704802 80.703635 
L 288.98276 81.591967 
L 289.260718 68.775211 
L 289.538675 70.053607 
L 290.094591 67.397963 
L 290.372548 67.929467 
L 290.650506 139.529264 
L 290.928464 140.19256 
L 291.206421 140.023803 
L 291.484379 139.988948 
L 291.762337 140.807605 
L 292.040294 139.730591 
L 292.318252 141.152735 
L 292.59621 140.339524 
L 292.874167 140.467449 
L 293.152125 140.07879 
L 293.430083 139.183934 
L 293.985998 140.894626 
L 294.263955 140.642713 
L 294.541913 141.065388 
L 294.819871 141.009645 
L 295.097828 140.605466 
L 295.375786 141.550452 
L 295.653744 140.564908 
L 295.931701 140.808574 
L 296.209659 140.480781 
L 296.487617 129.107137 
L 296.765574 128.888223 
L 297.043532 129.002652 
L 297.32149 128.789534 
L 297.599447 129.149046 
L 297.877405 129.112583 
L 298.43332 129.481216 
L 298.711278 129.331139 
L 298.989236 129.863566 
L 299.823109 130.092145 
L 300.101066 129.738064 
L 300.379024 130.104128 
L 300.656982 129.930853 
L 300.934939 130.3905 
L 301.212897 130.250119 
L 301.490855 130.650356 
L 302.04677 130.779856 
L 302.324728 139.154912 
L 302.880643 139.029529 
L 303.158601 139.100932 
L 303.436558 139.341699 
L 303.714516 139.210629 
L 303.992474 139.233848 
L 304.270431 140.026667 
L 304.826347 139.478651 
L 305.104304 139.432395 
L 305.382262 139.566979 
L 305.660219 140.400912 
L 305.938177 139.648123 
L 306.216135 139.891646 
L 306.494092 140.348686 
L 306.77205 139.8603 
L 307.050008 140.001603 
L 307.327965 140.70189 
L 307.605923 140.076609 
L 308.439796 141.00013 
L 308.717754 140.36472 
L 308.995711 140.318945 
L 309.273669 153.663469 
L 309.551627 118.915894 
L 309.829584 179.215376 
L 310.107542 271.8 
L 312.331203 271.8 
L 312.609161 131.137712 
L 313.720992 131.248305 
L 313.998949 125.913275 
L 314.276907 125.726578 
L 314.554865 137.816199 
L 314.832822 136.712538 
L 315.11078 137.985944 
L 315.388738 136.954008 
L 315.666695 137.386174 
L 315.944653 137.055195 
L 316.778526 137.628529 
L 317.056483 138.292302 
L 317.334441 138.499763 
L 317.612399 138.00264 
L 317.890356 138.446854 
L 318.168314 130.946554 
L 318.446272 136.824454 
L 318.724229 136.713414 
L 319.002187 137.663489 
L 319.280145 136.523944 
L 319.558102 130.431734 
L 321.503806 131.177514 
L 322.059721 131.257308 
L 322.615637 131.455956 
L 322.893594 131.034193 
L 323.171552 131.631186 
L 323.44951 131.438676 
L 323.727467 131.7804 
L 324.005425 131.784511 
L 324.283383 131.922473 
L 324.56134 131.824363 
L 324.839298 131.953826 
L 325.117256 131.833874 
L 325.395213 132.231473 
L 325.951129 132.06554 
L 326.229086 132.443064 
L 326.785002 132.340498 
L 327.062959 132.6119 
L 327.340917 132.629619 
L 327.618875 132.794184 
L 327.896832 132.736002 
L 328.17479 132.997779 
L 328.452748 132.876899 
L 328.730705 133.160701 
L 329.008663 133.049731 
L 329.842536 133.378329 
L 330.120493 133.272013 
L 330.398451 133.428065 
L 330.676409 133.715488 
L 330.954366 133.614077 
L 331.232324 141.266583 
L 331.510282 133.958081 
L 332.344155 133.935238 
L 332.622112 133.843166 
L 332.90007 134.051686 
L 333.455985 134.069131 
L 334.011901 134.138448 
L 334.289858 133.862814 
L 334.567816 134.447407 
L 334.845774 134.364116 
L 335.123731 130.918994 
L 335.401689 130.486349 
L 335.679647 131.364741 
L 335.957604 131.230857 
L 336.51352 131.555112 
L 336.791477 131.432541 
L 337.069435 131.572151 
L 337.62535 131.664427 
L 338.181266 131.927325 
L 338.459223 131.862422 
L 338.737181 132.01397 
L 339.015139 131.937867 
L 339.293096 91.340975 
L 339.571054 90.727607 
L 339.849012 88.407432 
L 340.404927 88.927591 
L 340.682884 89.448671 
L 340.960842 88.357935 
L 341.2388 88.836512 
L 341.516757 88.321559 
L 342.35063 92.041982 
L 342.628588 88.83062 
L 342.906546 87.626812 
L 343.184503 88.661196 
L 343.462461 90.190632 
L 343.740419 88.244637 
L 344.018376 87.207798 
L 344.296334 89.435381 
L 344.574292 88.278479 
L 344.852249 88.450543 
L 345.130207 83.707394 
L 345.408165 83.763233 
L 345.686122 83.530536 
L 345.96408 83.48154 
L 346.242038 83.83729 
L 346.519995 83.384671 
L 346.797953 83.411651 
L 347.075911 83.89477 
L 347.353868 39.704049 
L 348.187741 39.489679 
L 348.465699 40.150861 
L 348.743657 40.054569 
L 349.021614 39.606157 
L 349.299572 39.945116 
L 349.57753 41.325696 
L 349.855487 41.131817 
L 350.133445 41.133075 
L 350.411403 41.353086 
L 350.68936 41.029426 
L 350.967318 40.949748 
L 351.245276 41.639158 
L 351.523233 41.485321 
L 351.801191 41.697011 
L 352.079149 41.496767 
L 352.357106 41.866632 
L 352.635064 41.575624 
L 352.913021 41.983608 
L 353.190979 41.945298 
L 353.468937 42.0593 
L 353.746894 42.964572 
L 354.024852 42.433429 
L 354.30281 42.176135 
L 354.580767 42.38139 
L 354.858725 42.190187 
L 355.136683 42.989782 
L 355.41464 43.181925 
L 355.692598 42.628679 
L 355.970556 42.703506 
L 356.248513 43.534116 
L 356.526471 43.115452 
L 357.360344 43.579516 
L 357.638302 44.164103 
L 357.916259 43.490151 
L 358.194217 43.814211 
L 358.472175 43.405219 
L 358.750132 43.808861 
L 359.02809 40.226258 
L 359.306048 39.690623 
L 359.861963 39.634506 
L 360.417878 32.143842 
L 360.695836 44.061426 
L 360.973794 43.957245 
L 361.251751 41.34394 
L 361.529709 41.51196 
L 361.807667 39.729343 
L 362.085624 144.960253 
L 362.363582 145.820558 
L 362.64154 145.124835 
L 362.919497 142.965027 
L 363.197455 143.253144 
L 363.475413 143.067026 
L 363.75337 143.264368 
L 364.031328 143.061217 
L 364.587243 143.271186 
L 365.699074 143.762498 
L 365.977031 144.000843 
L 366.254989 144.08701 
L 366.532947 144.019414 
L 367.088862 144.406185 
L 367.36682 144.256985 
L 367.644777 144.562071 
L 367.922735 144.440701 
L 368.47865 144.629817 
L 368.756608 144.517899 
L 369.034566 150.695922 
L 369.312523 151.045366 
L 369.590481 151.037515 
L 369.868439 150.519663 
L 370.146396 59.14045 
L 370.424354 59.099567 
L 370.702312 59.200806 
L 371.258227 59.11627 
L 371.536185 59.298242 
L 372.0921 59.089048 
L 372.370058 59.625396 
L 372.648015 59.496186 
L 372.925973 59.621132 
L 373.203931 60.013786 
L 373.481888 59.878246 
L 374.315761 60.217732 
L 374.871677 60.094403 
L 375.149634 60.368246 
L 375.427592 60.391851 
L 375.70555 60.774031 
L 375.983507 60.448296 
L 376.261465 60.625973 
L 376.539422 60.95116 
L 377.095338 61.048228 
L 377.651253 61.420255 
L 377.929211 61.306802 
L 379.041041 61.685858 
L 379.596957 62.285286 
L 380.708787 62.724799 
L 380.986745 63.148927 
L 381.264703 63.167685 
L 381.54266 63.501251 
L 381.820618 63.498259 
L 382.098576 63.324085 
L 382.376533 63.874246 
L 382.932449 63.962076 
L 383.210406 64.350493 
L 383.488364 64.036599 
L 383.766322 63.911377 
L 384.322237 64.95692 
L 384.600195 65.058838 
L 384.878152 64.881369 
L 385.434068 65.268117 
L 385.712025 65.195698 
L 385.989983 65.633439 
L 386.267941 65.742666 
L 386.545898 72.618357 
L 386.823856 74.364417 
L 387.101814 72.917293 
L 387.379771 74.051888 
L 387.657729 73.200834 
L 387.935686 66.635941 
L 388.213644 66.243219 
L 388.491602 66.188452 
L 388.769559 65.868946 
L 389.325475 66.138718 
L 389.603432 52.395289 
L 389.88139 68.251807 
L 390.159348 68.276763 
L 390.715263 68.740034 
L 390.993221 69.30232 
L 391.271178 69.128974 
L 391.549136 69.422288 
L 391.827094 68.934722 
L 392.383009 69.346079 
L 392.660967 69.051066 
L 392.938924 69.300058 
L 393.216882 68.358978 
L 395.162586 69.169196 
L 395.718501 69.578879 
L 395.996459 70.162712 
L 396.274416 70.010551 
L 396.552374 70.356083 
L 396.830332 70.959509 
L 397.108289 70.711362 
L 397.386247 70.987003 
L 397.664205 71.02815 
L 398.22012 71.426902 
L 398.498078 71.503719 
L 399.053993 71.926291 
L 399.33195 72.138093 
L 399.609908 71.657053 
L 400.165823 72.252677 
L 400.443781 72.500052 
L 400.721739 72.909422 
L 400.999696 72.874482 
L 401.277654 132.999284 
L 401.555612 132.71963 
L 401.833569 52.662403 
L 402.389485 59.199867 
L 402.667442 55.685969 
L 402.9454 38.560189 
L 403.223358 38.417791 
L 403.501315 38.781287 
L 403.779273 38.786602 
L 404.335188 39.37761 
L 404.613146 39.102345 
L 404.891104 39.470799 
L 405.169061 39.473703 
L 405.724977 39.971335 
L 406.280892 40.254661 
L 406.55885 40.238801 
L 407.67068 40.928314 
L 407.948638 40.634017 
L 408.226596 41.349463 
L 408.504553 41.352356 
L 408.782511 41.725667 
L 409.060469 41.393584 
L 409.616384 41.883356 
L 409.894342 42.006976 
L 410.172299 41.94787 
L 410.450257 42.093118 
L 410.728215 42.009103 
L 411.006172 42.202553 
L 411.28413 42.810448 
L 411.562087 42.794653 
L 411.840045 42.976832 
L 412.118003 42.994175 
L 412.39596 43.436175 
L 412.951876 43.380421 
L 413.229833 43.676119 
L 413.507791 43.64946 
L 413.785749 43.987251 
L 414.063706 44.131756 
L 414.341664 44.06626 
L 414.619622 44.434325 
L 414.897579 44.436176 
L 415.453495 45.065023 
L 415.731452 44.692621 
L 416.00941 44.889496 
L 416.287368 45.313128 
L 417.677156 46.366342 
L 417.955114 46.188933 
L 418.233071 46.47712 
L 418.511029 46.357234 
L 418.788987 46.481856 
L 419.066944 46.849019 
L 419.344902 46.849539 
L 420.456733 47.501952 
L 421.012648 47.521511 
L 421.568563 48.16696 
L 421.846521 48.073555 
L 422.680394 48.629297 
L 422.958351 48.391686 
L 423.236309 49.52324 
L 423.514267 49.519383 
L 423.792224 49.782283 
L 424.070182 49.889236 
L 424.34814 49.339803 
L 424.904055 50.372437 
L 425.182013 49.849418 
L 425.45997 50.068891 
L 425.737928 50.062413 
L 426.015886 49.915984 
L 426.293843 50.3138 
L 426.571801 50.134014 
L 426.849759 49.776091 
L 427.127716 49.953639 
L 427.405674 50.424957 
L 427.683632 50.394592 
L 427.961589 50.516724 
L 428.517505 50.239025 
L 428.795462 50.640747 
L 429.07342 50.213131 
L 429.351378 50.832821 
L 429.629335 50.42839 
L 429.907293 50.543173 
L 430.185251 51.0052 
L 430.463208 50.779594 
L 430.741166 44.996366 
L 431.019124 123.043788 
L 431.297081 120.655625 
L 431.575039 120.527948 
L 431.852997 120.665661 
L 432.130954 121.038626 
L 432.408912 120.935869 
L 432.68687 121.172223 
L 432.964827 121.157656 
L 433.242785 121.419392 
L 433.520743 121.245896 
L 433.7987 121.26147 
L 434.076658 121.564158 
L 434.354616 121.63522 
L 434.632573 121.501025 
L 434.910531 121.668026 
L 435.188488 121.974625 
L 435.744404 122.159986 
L 436.022361 271.8 
L 436.300319 122.188013 
L 436.856234 122.495175 
L 437.134192 65.338002 
L 437.41215 84.006633 
L 437.690107 37.647622 
L 437.968065 48.830302 
L 438.246023 52.630513 
L 438.52398 52.340984 
L 438.801938 51.721366 
L 439.079896 50.060878 
L 439.357853 49.883289 
L 439.635811 48.556017 
L 439.913769 51.757767 
L 440.191726 52.058107 
L 440.469684 50.052136 
L 440.747642 41.246025 
L 441.303557 40.54927 
L 441.581515 40.225942 
L 441.859472 21.750877 
L 442.415388 19.8 
L 442.971303 20.072168 
L 443.527218 20.602916 
L 443.805176 21.004913 
L 444.083134 20.76427 
L 444.361091 21.060652 
L 444.639049 20.965476 
L 444.917007 21.636089 
L 445.194964 21.906761 
L 445.472922 22.013666 
L 446.028837 22.635933 
L 446.306795 23.174044 
L 446.584752 22.987988 
L 446.86271 23.200748 
L 447.140668 24.276875 
L 447.696583 24.516691 
L 447.974541 23.733413 
L 448.252498 25.003057 
L 448.530456 24.576562 
L 449.086371 24.696703 
L 449.364329 24.739426 
L 449.642287 25.572304 
L 449.920244 27.559078 
L 450.198202 25.41044 
L 450.754117 24.915448 
L 451.310033 27.063601 
L 451.58799 26.054601 
L 451.865948 26.243295 
L 452.143906 26.07533 
L 452.421863 27.811371 
L 452.699821 27.165004 
L 452.977779 27.79262 
L 453.255736 27.680829 
L 453.533694 27.239336 
L 453.811652 27.561829 
L 454.089609 28.295511 
L 454.367567 27.246826 
L 454.645525 28.369309 
L 454.923482 28.200047 
L 455.20144 28.825694 
L 455.479398 28.612638 
L 455.757355 29.411294 
L 456.035313 29.409786 
L 456.313271 30.044336 
L 456.591228 29.742914 
L 456.869186 29.901359 
L 457.147144 30.382806 
L 457.425101 30.245974 
L 457.703059 31.407977 
L 457.981017 30.563039 
L 458.258974 32.229972 
L 458.536932 31.331632 
L 458.814889 31.661302 
L 459.092847 31.632615 
L 459.370805 31.727832 
L 459.648762 32.505123 
L 459.92672 32.023799 
L 460.204678 33.721019 
L 460.482635 32.625644 
L 460.760593 34.275103 
L 461.038551 33.110058 
L 461.316508 33.15865 
L 461.594466 26.873873 
L 461.872424 33.458233 
L 462.150381 35.723326 
L 462.428339 127.750053 
L 462.706297 127.646656 
L 463.262212 128.140915 
L 463.54017 35.766224 
L 463.818127 34.921494 
L 464.096085 36.137694 
L 464.652 36.93639 
L 465.207916 39.856859 
L 465.485873 40.592888 
L 465.763831 40.484855 
L 466.597704 41.67751 
L 466.875662 40.755542 
L 467.153619 39.372601 
L 467.431577 36.765196 
L 467.709535 36.246641 
L 468.26545 37.698268 
L 468.543408 40.152274 
L 468.821365 38.167628 
L 469.099323 37.562268 
L 469.377281 38.711439 
L 469.655238 41.032189 
L 469.933196 38.036799 
L 470.489111 42.231799 
L 470.767069 38.847712 
L 471.045026 42.379556 
L 471.322984 39.300311 
L 471.600942 42.725449 
L 471.878899 39.30087 
L 472.156857 43.641001 
L 472.434815 40.771842 
L 472.712772 41.795364 
L 472.99073 44.361676 
L 473.268688 42.199881 
L 473.546645 41.262139 
L 474.102561 44.53114 
L 474.380518 44.702595 
L 474.658476 44.352627 
L 474.936434 43.089573 
L 475.214391 43.040953 
L 475.492349 42.83703 
L 475.770307 42.028431 
L 476.048264 43.826182 
L 476.326222 43.280188 
L 476.60418 44.465738 
L 476.882137 44.076944 
L 477.438053 47.386427 
L 477.71601 45.537299 
L 477.993968 44.968115 
L 478.549883 47.993328 
L 478.827841 47.056229 
L 478.827841 47.056229 
" clip-path="url(#p2f0fe55e10)" style="fill: none; stroke: #008000; stroke-width: 2; stroke-linecap: square"/>
   </g>
   <g id="line2d_19">
    <path d="M 73.009659 134.409395 
L 77.179024 128.060499 
L 81.070431 122.522419 
L 84.961838 117.344208 
L 88.853246 112.51211 
L 91.354865 109.582229 
L 91.632822 237.763294 
L 92.188738 237.806498 
L 92.466695 108.323249 
L 93.578526 107.090408 
L 93.856483 158.516376 
L 95.246272 157.362627 
L 95.524229 104.994915 
L 99.415637 101.034751 
L 103.307044 97.371623 
L 107.198451 93.992862 
L 111.367816 90.674194 
L 115.537181 87.652686 
L 119.15063 85.263043 
L 119.428588 181.401313 
L 135.82809 178.244863 
L 136.106048 212.20492 
L 136.384005 178.138455 
L 159.732449 173.783963 
L 160.288364 173.684029 
L 160.566322 70.16053 
L 165.847517 69.495737 
L 171.40667 69.019151 
L 177.243781 68.737881 
L 183.636807 68.654607 
L 190.585749 68.790553 
L 198.368563 69.171008 
L 206.985251 69.806932 
L 207.263208 175.383169 
L 208.097081 175.565378 
L 208.375039 111.590831 
L 222.272922 114.614593 
L 236.170805 117.660976 
L 236.448762 72.762181 
L 250.902561 74.139134 
L 255.071926 74.478682 
L 255.349883 161.210848 
L 269.803682 160.211291 
L 272.861216 160.026432 
L 273.139173 75.50016 
L 281.755861 75.670343 
L 289.816633 75.612647 
L 290.372548 75.600503 
L 290.650506 138.569252 
L 298.989236 138.104191 
L 307.327965 137.40957 
L 309.551627 137.185484 
L 309.829584 187.918383 
L 310.107542 271.8 
L 312.331203 271.8 
L 312.609161 136.850804 
L 320.947891 135.783742 
L 329.564578 134.451041 
L 338.459223 132.844546 
L 339.015139 132.736796 
L 339.293096 70.056862 
L 347.353868 68.300477 
L 355.692598 66.259314 
L 361.807667 64.62946 
L 362.085624 127.614619 
L 369.868439 125.659554 
L 370.146396 62.245563 
L 380.708787 59.001994 
L 393.772797 54.745274 
L 400.999696 52.328015 
L 401.277654 153.035824 
L 401.555612 153.000724 
L 401.833569 52.048116 
L 421.846521 45.444699 
L 430.741166 42.706442 
L 431.019124 110.799565 
L 435.744404 110.041917 
L 436.022361 215.568692 
L 436.300319 109.96005 
L 436.856234 109.879789 
L 437.134192 40.875224 
L 444.639049 38.918743 
L 451.58799 37.337336 
L 457.703059 36.165214 
L 462.150381 35.460954 
L 462.428339 138.610038 
L 463.262212 138.293114 
L 463.54017 35.268794 
L 469.099323 34.644021 
L 474.380518 34.281517 
L 478.827841 34.168151 
L 478.827841 34.168151 
" clip-path="url(#p2f0fe55e10)" style="fill: none; stroke-dasharray: 9.6,2.4,1.5,2.4; stroke-dashoffset: 0; stroke: #0000ff; stroke-width: 1.5"/>
   </g>
   <g id="patch_3">
    <path d="M 52.71875 284.4 
L 52.71875 7.2 
" style="fill: none; stroke: #000000; stroke-width: 0.8; stroke-linejoin: miter; stroke-linecap: square"/>
   </g>
   <g id="patch_4">
    <path d="M 499.11875 284.4 
L 499.11875 7.2 
" style="fill: none; stroke: #000000; stroke-width: 0.8; stroke-linejoin: miter; stroke-linecap: square"/>
   </g>
   <g id="patch_5">
    <path d="M 52.71875 284.4 
L 499.11875 284.4 
" style="fill: none; stroke: #000000; stroke-width: 0.8; stroke-linejoin: miter; stroke-linecap: square"/>
   </g>
   <g id="patch_6">
    <path d="M 52.71875 7.2 
L 499.11875 7.2 
" style="fill: none; stroke: #000000; stroke-width: 0.8; stroke-linejoin: miter; stroke-linecap: square"/>
   </g>
   <g id="legend_1">
    <g id="patch_7">
     <path d="M 61.11875 278.4 
L 297.5675 278.4 
Q 299.9675 278.4 299.9675 276 
L 299.9675 241.9725 
Q 299.9675 239.5725 297.5675 239.5725 
L 61.11875 239.5725 
Q 58.71875 239.5725 58.71875 241.9725 
L 58.71875 276 
Q 58.71875 278.4 61.11875 278.4 
z
" style="fill: #ffffff; opacity: 0.8; stroke: #cccccc; stroke-linejoin: miter"/>
    </g>
    <g id="line2d_20">
     <path d="M 63.51875 249.290625 
L 75.51875 249.290625 
L 87.51875 249.290625 
" style="fill: none; stroke: #008000; stroke-width: 2; stroke-linecap: square"/>
    </g>
    <g id="text_20">
     <!-- True Total Mass Flow -->
     <g transform="translate(97.11875 253.490625) scale(0.12 -0.12)">
      <defs>
       <path id="DejaVuSans-72" d="M 2631 2963 
Q 2534 3019 2420 3045 
Q 2306 3072 2169 3072 
Q 1681 3072 1420 2755 
Q 1159 2438 1159 1844 
L 1159 0 
L 581 0 
L 581 3500 
L 1159 3500 
L 1159 2956 
Q 1341 3275 1631 3429 
Q 1922 3584 2338 3584 
Q 2397 3584 2469 3576 
Q 2541 3569 2628 3553 
L 2631 2963 
z
" transform="scale(0.015625)"/>
       <path id="DejaVuSans-75" d="M 544 1381 
L 544 3500 
L 1119 3500 
L 1119 1403 
Q 1119 906 1312 657 
Q 1506 409 1894 409 
Q 2359 409 2629 706 
Q 2900 1003 2900 1516 
L 2900 3500 
L 3475 3500 
L 3475 0 
L 2900 0 
L 2900 538 
Q 2691 219 2414 64 
Q 2138 -91 1772 -91 
Q 1169 -91 856 284 
Q 544 659 544 1381 
z
M 1991 3584 
L 1991 3584 
z
" transform="scale(0.015625)"/>
      </defs>
      <use xlink:href="#DejaVuSans-54"/>
      <use xlink:href="#DejaVuSans-72" x="46.333984"/>
      <use xlink:href="#DejaVuSans-75" x="87.447266"/>
      <use xlink:href="#DejaVuSans-65" x="150.826172"/>
      <use xlink:href="#DejaVuSans-20" x="212.349609"/>
      <use xlink:href="#DejaVuSans-54" x="244.136719"/>
      <use xlink:href="#DejaVuSans-6f" x="288.220703"/>
      <use xlink:href="#DejaVuSans-74" x="349.402344"/>
      <use xlink:href="#DejaVuSans-61" x="388.611328"/>
      <use xlink:href="#DejaVuSans-6c" x="449.890625"/>
      <use xlink:href="#DejaVuSans-20" x="477.673828"/>
      <use xlink:href="#DejaVuSans-4d" x="509.460938"/>
      <use xlink:href="#DejaVuSans-61" x="595.740234"/>
      <use xlink:href="#DejaVuSans-73" x="657.019531"/>
      <use xlink:href="#DejaVuSans-73" x="709.119141"/>
      <use xlink:href="#DejaVuSans-20" x="761.21875"/>
      <use xlink:href="#DejaVuSans-46" x="793.005859"/>
      <use xlink:href="#DejaVuSans-6c" x="850.525391"/>
      <use xlink:href="#DejaVuSans-6f" x="878.308594"/>
      <use xlink:href="#DejaVuSans-77" x="939.490234"/>
     </g>
    </g>
    <g id="line2d_21">
     <path d="M 63.51875 266.904375 
L 75.51875 266.904375 
L 87.51875 266.904375 
" style="fill: none; stroke-dasharray: 9.6,2.4,1.5,2.4; stroke-dashoffset: 0; stroke: #0000ff; stroke-width: 1.5"/>
    </g>
    <g id="text_21">
     <!-- Model-Estimated Total Mass Flow -->
     <g transform="translate(97.11875 271.104375) scale(0.12 -0.12)">
      <defs>
       <path id="DejaVuSans-64" d="M 2906 2969 
L 2906 4863 
L 3481 4863 
L 3481 0 
L 2906 0 
L 2906 525 
Q 2725 213 2448 61 
Q 2172 -91 1784 -91 
Q 1150 -91 751 415 
Q 353 922 353 1747 
Q 353 2572 751 3078 
Q 1150 3584 1784 3584 
Q 2172 3584 2448 3432 
Q 2725 3281 2906 2969 
z
M 947 1747 
Q 947 1113 1208 752 
Q 1469 391 1925 391 
Q 2381 391 2643 752 
Q 2906 1113 2906 1747 
Q 2906 2381 2643 2742 
Q 2381 3103 1925 3103 
Q 1469 3103 1208 2742 
Q 947 2381 947 1747 
z
" transform="scale(0.015625)"/>
       <path id="DejaVuSans-2d" d="M 313 2009 
L 1997 2009 
L 1997 1497 
L 313 1497 
L 313 2009 
z
" transform="scale(0.015625)"/>
       <path id="DejaVuSans-45" d="M 628 4666 
L 3578 4666 
L 3578 4134 
L 1259 4134 
L 1259 2753 
L 3481 2753 
L 3481 2222 
L 1259 2222 
L 1259 531 
L 3634 531 
L 3634 0 
L 628 0 
L 628 4666 
z
" transform="scale(0.015625)"/>
      </defs>
      <use xlink:href="#DejaVuSans-4d"/>
      <use xlink:href="#DejaVuSans-6f" x="86.279297"/>
      <use xlink:href="#DejaVuSans-64" x="147.460938"/>
      <use xlink:href="#DejaVuSans-65" x="210.9375"/>
      <use xlink:href="#DejaVuSans-6c" x="272.460938"/>
      <use xlink:href="#DejaVuSans-2d" x="300.244141"/>
      <use xlink:href="#DejaVuSans-45" x="336.328125"/>
      <use xlink:href="#DejaVuSans-73" x="399.511719"/>
      <use xlink:href="#DejaVuSans-74" x="451.611328"/>
      <use xlink:href="#DejaVuSans-69" x="490.820312"/>
      <use xlink:href="#DejaVuSans-6d" x="518.603516"/>
      <use xlink:href="#DejaVuSans-61" x="616.015625"/>
      <use xlink:href="#DejaVuSans-74" x="677.294922"/>
      <use xlink:href="#DejaVuSans-65" x="716.503906"/>
      <use xlink:href="#DejaVuSans-64" x="778.027344"/>
      <use xlink:href="#DejaVuSans-20" x="841.503906"/>
      <use xlink:href="#DejaVuSans-54" x="873.291016"/>
      <use xlink:href="#DejaVuSans-6f" x="917.375"/>
      <use xlink:href="#DejaVuSans-74" x="978.556641"/>
      <use xlink:href="#DejaVuSans-61" x="1017.765625"/>
      <use xlink:href="#DejaVuSans-6c" x="1079.044922"/>
      <use xlink:href="#DejaVuSans-20" x="1106.828125"/>
      <use xlink:href="#DejaVuSans-4d" x="1138.615234"/>
      <use xlink:href="#DejaVuSans-61" x="1224.894531"/>
      <use xlink:href="#DejaVuSans-73" x="1286.173828"/>
      <use xlink:href="#DejaVuSans-73" x="1338.273438"/>
      <use xlink:href="#DejaVuSans-20" x="1390.373047"/>
      <use xlink:href="#DejaVuSans-46" x="1422.160156"/>
      <use xlink:href="#DejaVuSans-6c" x="1479.679688"/>
      <use xlink:href="#DejaVuSans-6f" x="1507.462891"/>
      <use xlink:href="#DejaVuSans-77" x="1568.644531"/>
     </g>
    </g>
   </g>
  </g>
 </g>
 <defs>
  <clipPath id="p2f0fe55e10">
   <rect x="52.71875" y="7.2" width="446.4" height="277.2"/>
  </clipPath>
 </defs>
</svg>
